#!OML:ASF I:\golf\golf\golf 2\Subject 1\2002-09-07\Subject1.ASF
:FULLY-SPECIFIED
:DEGREES
160
root -0.787767 17.6226 -3.97686 22.2706 11.0452 -2.52883
lowerback 25.5994 4.09495 0.996335
upperback 11.9259 5.62629 3.70108
thorax -1.24593 2.72008 1.97838
lowerneck -16.6369 -1.74156 2.95877
upperneck 28.6436 -0.248798 -9.64336
head 12.167 -0.951138 -4.19513
rclavicle 6.36111e-015 3.02153e-014
rhumerus 16.1114 22.4047 -69.9676
rradius 42.8259
rwrist -14.5877
rhand -36.2924 16.9759
rfingers 7.12502
rthumb -9.39196 -12.7949
lclavicle 6.36111e-015 3.02153e-014
lhumerus -17.4112 -49.1581 89.4721
lradius 70.2603
lwrist 14.4446
lhand -25.6863 20.9902
lfingers 7.12502
lthumb 0.848751 50.9682
rfemur -50.2244 -11.2309 30.416
rtibia 40.0046
rfoot -8.78486 -8.87475
rtoes 8.71992
lfemur -53.5315 4.23348 -12.171
ltibia 39.7685
lfoot -9.95859 -6.77345
ltoes -17.9611
161
root -0.771318 17.6047 -3.96736 22.8322 10.8379 -2.472
lowerback 26.1176 4.23458 1.02472
upperback 12.0851 5.8066 3.722
thorax -1.31712 2.80411 1.91422
lowerneck -16.6402 -1.87664 2.88558
upperneck 28.1141 -0.452313 -9.66394
head 11.9422 -1.04997 -4.19153
rclavicle 2.38542e-014 -9.54166e-015
rhumerus 17.5373 21.6275 -69.5942
rradius 41.4987
rwrist -14.3157
rhand -36.385 16.8059
rfingers 7.12502
rthumb -9.4813 -12.9608
lclavicle 2.38542e-014 -9.54166e-015
lhumerus -17.0996 -49.7018 89.2322
lradius 70.5755
lwrist 14.1549
lhand -26.2546 20.3385
lfingers 7.12502
lthumb 0.299876 50.318
rfemur -51.0136 -11.1547 30.445
rtibia 40.329
rfoot -8.86494 -8.74434
rtoes 8.91588
lfemur -53.9832 3.86163 -11.7871
ltibia 37.723
lfoot -9.74198 -7.43302
ltoes -18.4465
162
root -0.752596 17.5888 -3.95605 23.3194 10.6294 -2.46999
lowerback 26.6834 4.37388 1.06667
upperback 12.254 5.99054 3.77154
thorax -1.399 2.88886 1.86835
lowerneck -16.6016 -2.00581 2.74828
upperneck 27.5922 -0.645657 -9.62121
head 11.7166 -1.14233 -4.15056
rclavicle 1.03368e-013 -9.54166e-015
rhumerus 18.9004 20.8881 -69.2774
rradius 40.0228
rwrist -13.474
rhand -36.8235 17.073
rfingers 7.12502
rthumb -9.90437 -12.6741
lclavicle 1.03368e-013 -9.54166e-015
lhumerus -16.8744 -50.1497 89.1014
lradius 70.8733
lwrist 13.7775
lhand -26.6039 19.9268
lfingers 7.12502
lthumb -0.0374929 49.9065
rfemur -51.7107 -11.1358 30.5403
rtibia 40.63
rfoot -8.99483 -8.49809
rtoes 8.88819
lfemur -54.2919 3.44672 -11.2736
ltibia 35.7693
lfoot -9.56215 -7.9989
ltoes -18.6439
163
root -0.730829 17.5752 -3.94411 23.808 10.4406 -2.3804
lowerback 27.2236 4.51458 1.04282
upperback 12.4547 6.15954 3.81882
thorax -1.43684 2.96431 1.86287
lowerneck -16.6732 -2.14966 2.61833
upperneck 27.1652 -0.858886 -9.56536
head 11.5513 -1.24334 -4.1168
rclavicle -1.59028e-014 -7.15625e-015
rhumerus 20.2867 20.119 -68.9056
rradius 38.6567
rwrist -12.8096
rhand -37.1502 17.2694
rfingers 7.12502
rthumb -10.2196 -12.4624
lclavicle -1.59028e-014 -7.15625e-015
lhumerus -16.674 -50.5357 89.0348
lradius 71.2132
lwrist 13.2997
lhand -27.0287 19.6484
lfingers 7.12502
lthumb -0.447799 49.6277
rfemur -52.386 -11.2348 30.5762
rtibia 40.9049
rfoot -9.11052 -8.2237
rtoes 8.37756
lfemur -54.5838 3.0263 -10.904
ltibia 33.9339
lfoot -9.45302 -8.34117
ltoes -19.9303
164
root -0.705962 17.5622 -3.93372 24.3131 10.2474 -2.26088
lowerback 27.6762 4.63904 0.997777
upperback 12.7154 6.30007 3.89083
thorax -1.36875 3.02491 1.91212
lowerneck -16.7877 -2.29867 2.44358
upperneck 26.6481 -1.05095 -9.5837
head 11.3644 -1.34892 -4.09746
rclavicle 3.33958e-014 -2.70347e-014
rhumerus 21.7892 19.2287 -68.535
rradius 37.4311
rwrist -12.3649
rhand -37.2216 17.3131
rfingers 7.12502
rthumb -10.2884 -12.4153
lclavicle 3.33958e-014 -2.70347e-014
lhumerus -16.3761 -50.8381 88.9544
lradius 71.4065
lwrist 12.5831
lhand -27.9206 19.2009
lfingers 7.12502
lthumb -1.3092 49.1766
rfemur -53.0581 -11.298 30.5507
rtibia 41.1592
rfoot -9.20532 -8.02454
rtoes 8.01208
lfemur -54.9647 2.61883 -10.5966
ltibia 32.2842
lfoot -9.29119 -8.47429
ltoes -21.2069
165
root -0.67718 17.5447 -3.92533 24.8408 10.0012 -2.2923
lowerback 28.102 4.74803 1.14627
upperback 12.9543 6.46126 3.91384
thorax -1.28519 3.10373 1.79448
lowerneck -16.9271 -2.40314 2.41473
upperneck 26.1391 -1.20014 -9.68325
head 11.1879 -1.43103 -4.12912
rclavicle -9.06458e-014 -3.97569e-015
rhumerus 23.2459 18.2526 -68.301
rradius 36.2789
rwrist -12.0131
rhand -37.2023 17.2887
rfingers 7.12502
rthumb -10.2698 -12.4406
lclavicle -9.06458e-014 -3.97569e-015
lhumerus -16.0543 -51.2413 88.7429
lradius 71.5817
lwrist 11.6491
lhand -28.7351 19.0985
lfingers 7.12502
lthumb -2.0959 49.068
rfemur -53.7852 -11.2438 30.6521
rtibia 41.4188
rfoot -9.32305 -7.80602
rtoes 8.19466
lfemur -55.4411 2.31268 -10.1463
ltibia 30.8625
lfoot -9.00741 -8.4217
ltoes -21.6371
166
root -0.643912 17.5223 -3.9168 25.4389 9.65614 -2.4736
lowerback 28.4766 4.8549 1.4093
upperback 13.124 6.64251 3.87294
thorax -1.23372 3.19797 1.53688
lowerneck -16.9423 -2.459 2.53652
upperneck 25.6092 -1.30811 -9.85176
head 10.9801 -1.48582 -4.20188
rclavicle 4.77083e-014 -4.85035e-014
rhumerus 24.6578 17.5236 -68.0175
rradius 35.0562
rwrist -11.9777
rhand -37.1771 17.4151
rfingers 7.12502
rthumb -10.2455 -12.3154
lclavicle 4.77083e-014 -4.85035e-014
lhumerus -15.9231 -51.6169 88.464
lradius 72.0115
lwrist 10.7045
lhand -29.1212 19.6654
lfingers 7.12502
lthumb -2.46877 49.6309
rfemur -54.643 -11.1765 30.954
rtibia 41.6977
rfoot -9.395 -7.44399
rtoes 8.09044
lfemur -55.9956 2.2204 -9.6681
ltibia 29.6336
lfoot -8.73934 -8.1648
ltoes -22.0035
